<svg xmlns="http://www.w3.org/2000/svg" height="96" width="120"><path d="M59 15h2v2h-2zm0-8h2v6h-2zm1-5c-5.52 0-10 4.48-10 10s4.47 10 10 10A10.01 10.01 0 0 0 70 12 10.01 10.01 0 0 0 59.99 2zM60 20a8 8 0 1 1 0-16 8 8 0 1 1 0 16z" fill="#dc3545"/><path d="M25 21h22L36 2zm12-3h-2v-2h2zm0-4h-2v-4h2z" fill="#ffc107"/><path d="M11 7h2v2h-2zm0 4h2v6h-2zm1-9C6.48 2 2 6.48 2 12s4.48 10 10 10 10-4.48 10-10S17.52 2 12 2zm0 18c-4.4 0-8-3.6-8-8s3.6-8 8-8 8 3.6 8 8-3.6 8-8 8z" fill="#007bff"/><g fill="#525f7f"><path d="M84 46c1.1 0 2-.9 2-2h-4c0 1.1.9 2 2 2zm6-6v-5c0-3.07-1.63-5.64-4.5-6.32V28a1.5 1.5 0 1 0-3 0v.68c-2.86.68-4.5 3.24-4.5 6.32v5l-2 2v1h16v-1zm-2 1h-8v-6c0-2.48 1.5-4.5 4-4.5s4 2.02 4 4.5zm-8.42-12.92l-1.43-1.43c-2.4 1.83-3.98 4.65-4.12 7.85h2c.15-2.65 1.5-4.97 3.55-6.42zm12.4 6.42h2c-.15-3.2-1.73-6.02-4.12-7.85l-1.42 1.43c2.02 1.45 3.4 3.77 3.54 6.42zM55 31h10v3l4-4-4-4v3H53v6h2zm10 10H55v-3l-4 4 4 4v-3h12v-6h-2zM36 26c-5.52 0-10 4.48-10 10s4.48 10 10 10 10-4.48 10-10-4.48-10-10-10zm0 18a8 8 0 1 1 0-16 8 8 0 1 1 0 16zM12 26C6.48 26 2 30.48 2 36s4.48 10 10 10 10-4.48 10-10-4.48-10-10-10zm0 18a8 8 0 1 1 0-16 8 8 0 1 1 0 16z"/><circle cx="12" cy="36" r="5"/><path d="M84.5 56c-2.65 0-5.05 1-6.9 2.6L74 55v9h9l-3.62-3.62c1.4-1.16 3.16-1.88 5.12-1.88a8 8 0 0 1 7.6 5.5l2.37-.78c-1.4-4.2-5.32-7.22-9.97-7.22zM67 54.4L65.6 53 60 58.6 54.4 53 53 54.4l5.6 5.6-5.6 5.6 1.4 1.4 5.6-5.6 5.6 5.6 1.4-1.4-5.6-5.6zm-35.6 9l4.6-4.58 4.6 4.58L42 62l-6-6-6 6zm-24-6.8l4.6 4.58 4.6-4.58L18 58l-6 6-6-6zm96.48 18.8l-1.28-1.53L98 77.7l1.3 1.53zM118 77.72l-4.6-3.86-1.3 1.53 4.6 3.86zM108 76c-4.97 0-9 4.03-9 9s4.02 9 9 9c4.97 0 9-4.03 9-9s-4.03-9-9-9zm0 16c-3.87 0-7-3.13-7-7s3.13-7 7-7 7 3.13 7 7-3.13 7-7 7zm-3-9h3.63L105 87.2V89h6v-2h-3.63l3.63-4.2V81h-6zm-15-4l-1.4-1.4-6.34 6.34 1.4 1.4zm4.24-1.4L83.66 88.17 79.48 84l-1.4 1.4 5.6 5.6 12-12zM72.4 85.4L78 91l1.4-1.4-5.58-5.6zM64 81v10h-8V81h8m-1.5-6h-5l-1 1H53v2h14v-2h-3.5zm3.5 4H54v12c0 1.1.9 2 2 2h8c1.1 0 2-.9 2-2zm-27.94 2.02l.92.92L29.92 91H29v-.92l9.06-9.06m3.6-6.02a1 1 0 0 0-.7.29l-1.83 1.83 3.75 3.75 1.83-1.83c.4-.4.4-1.02 0-1.4l-2.34-2.34a.98.98 0 0 0-.71-.29zm-3.6 3.2L27 89.25V93h3.75L41.8 81.94zM19 85h-6v6h-2v-6H5v-2h6v-6h2v6h6z"/></g></svg>